REM MD5 3fecf1fe4ceca553ada8fda0d76f2c53
FILE "M-6 PlayStation Demo (France).bin" BINARY
  TRACK 01 MODE2/2352
    INDEX 01 00:00:00
  TRACK 02 AUDIO
    INDEX 00 52:22:60
    INDEX 01 52:24:60
  TRACK 03 AUDIO
    INDEX 00 56:38:68
    INDEX 01 56:40:68
REM LEADOUT 59:42:25
